HIERARCHY
ROOT SimulationBone
{
	OFFSET 0.000000 0.000000 0.000000
	CHANNELS 6 Xposition Yposition Zposition Zrotation Yrotation Xrotation 
	JOINT Hips
	{
		OFFSET 0.000000 0.000000 0.000000
		CHANNELS 6 Xposition Yposition Zposition Zrotation Yrotation Xrotation 
		JOINT LeftUpLeg
		{
			OFFSET 0.103462 1.857831 10.548496
			CHANNELS 3 Zrotation Yrotation Xrotation
			JOINT LeftLeg
			{
				OFFSET 43.500000 -0.000038 -0.000010
				CHANNELS 3 Zrotation Yrotation Xrotation
				JOINT LeftFoot
				{
					OFFSET 42.372192 0.000011 0.000010
					CHANNELS 3 Zrotation Yrotation Xrotation
					JOINT LeftToe
					{
						OFFSET 17.299999 0.000001 -0.000001
						CHANNELS 3 Zrotation Yrotation Xrotation
						End Site
						{
							OFFSET 0.000000 0.000000 0.000000
						}
					}
				}
			}
		}
		JOINT RightUpLeg
		{
			OFFSET 0.103456 1.857825 -10.548502
			CHANNELS 3 Zrotation Yrotation Xrotation
			JOINT RightLeg
			{
				OFFSET 43.500038 -0.000023 0.000011
				CHANNELS 3 Zrotation Yrotation Xrotation
				JOINT RightFoot
				{
					OFFSET 42.372261 -0.000008 0.000011
					CHANNELS 3 Zrotation Yrotation Xrotation
					JOINT RightToe
					{
						OFFSET 17.299994 -0.000004 0.000002
						CHANNELS 3 Zrotation Yrotation Xrotation
						End Site
						{
							OFFSET 0.000000 0.000000 0.000000
						}
					}
				}
			}
		}
		JOINT Spine
		{
			OFFSET 6.901965 -2.603729 -0.000002
			CHANNELS 3 Zrotation Yrotation Xrotation
			JOINT Spine1
			{
				OFFSET 12.588101 -0.000004 0.000003
				CHANNELS 3 Zrotation Yrotation Xrotation
				JOINT Spine2
				{
					OFFSET 12.343205 0.000006 0.000001
					CHANNELS 3 Zrotation Yrotation Xrotation
					JOINT Neck
					{
						OFFSET 25.832897 -0.000008 -0.000001
						CHANNELS 3 Zrotation Yrotation Xrotation
						JOINT Head
						{
							OFFSET 11.766601 0.000009 -0.000008
							CHANNELS 3 Zrotation Yrotation Xrotation
							End Site
							{
								OFFSET 0.000000 0.000000 0.000000
							}
						}
					}
					JOINT LeftShoulder
					{
						OFFSET 19.745893 -1.480370 6.000097
						CHANNELS 3 Zrotation Yrotation Xrotation
						JOINT LeftArm
						{
							OFFSET 11.284136 -0.000006 -0.000021
							CHANNELS 3 Zrotation Yrotation Xrotation
							JOINT LeftForeArm
							{
								OFFSET 33.000042 0.000005 0.000030
								CHANNELS 3 Zrotation Yrotation Xrotation
								JOINT LeftHand
								{
									OFFSET 25.200008 0.000013 0.000010
									CHANNELS 3 Zrotation Yrotation Xrotation
									End Site
									{
										OFFSET 0.000000 0.000000 0.000000
									}
								}
							}
						}
					}
					JOINT RightShoulder
					{
						OFFSET 19.746088 -1.480379 -6.000076
						CHANNELS 3 Zrotation Yrotation Xrotation
						JOINT RightArm
						{
							OFFSET 11.284133 -0.000016 -0.000013
							CHANNELS 3 Zrotation Yrotation Xrotation
							JOINT RightForeArm
							{
								OFFSET 33.000095 0.000019 0.000001
								CHANNELS 3 Zrotation Yrotation Xrotation
								JOINT RightHand
								{
									OFFSET 25.199785 0.000138 0.000422
									CHANNELS 3 Zrotation Yrotation Xrotation
									End Site
									{
										OFFSET 0.000000 0.000000 0.000000
									}
								}
							}
						}
					}
				}
			}
		}
	}
}
MOTION
Frames: 9
Frame Time: 0.016667
32.357819 0.000000 361.723872 0.000000 210.407211 0.000000 0.595327 87.939682 -1.268242 94.031711 -2.725016 176.948014 148.270347 4.443299 -178.994437 -69.435702 1.150000 -9.768793 70.248631 6.260516 -2.381155 21.454557 0.003113 0.000017 -174.214903 -6.544405 176.276391 -31.708794 1.809732 6.823470 84.261680 -5.631728 -4.334133 21.454551 -0.003091 -0.000000 7.382089 -0.218538 1.891394 4.742933 -0.513732 3.772326 4.425559 -0.491098 3.775353 -11.820438 2.251862 6.293566 -16.028972 -8.999204 10.170258 -66.918412 -75.598306 -116.023299 -21.350478 -8.900870 -36.017321 -40.851200 -18.802510 1.756600 21.570202 -14.395389 -55.800585 -11.286092 77.155581 170.891769 -24.544358 11.209509 29.129369 -48.363578 18.619331 -1.938907 13.816645 6.803538 45.813599 
29.724317 0.000000 362.525757 0.000000 209.517688 0.000000 0.530918 88.600630 -1.527499 93.350278 -3.524123 177.036429 148.128721 4.882064 179.784908 -62.826803 1.182768 -8.466515 70.536889 5.077755 -3.097499 21.454557 0.003109 0.000017 -172.888341 -5.430621 176.786675 -30.339851 1.755899 5.958102 80.603793 -5.138483 -3.949181 21.454550 -0.003091 0.000001 7.177577 -0.398178 1.942291 4.327808 -0.867945 3.868565 4.010444 -0.844727 3.873725 -13.130686 1.259166 5.855844 -14.714476 -8.168737 9.039352 -72.724589 -76.427466 -110.172804 -20.730762 -8.654708 -36.157980 -49.161909 -19.070604 2.010048 21.213946 -15.437117 -56.166212 -10.446201 78.546464 171.683526 -24.185612 10.640698 29.480596 -53.651789 18.014579 -2.078977 13.077828 7.171745 45.372507 
27.105931 0.000000 363.313134 0.000000 208.598152 0.000000 0.505841 89.111801 -1.740694 92.732837 -4.136711 177.314823 148.459830 5.341198 178.913896 -55.931790 1.476196 -6.556634 71.031610 3.480987 -3.846884 21.454557 0.003103 0.000018 -171.999504 -4.526509 177.836556 -30.033430 1.473057 4.775387 77.298739 -4.278273 -3.219195 21.454550 -0.003090 0.000001 6.989859 -0.539131 1.983776 3.947390 -1.144763 3.948408 3.630032 -1.121058 3.955231 -14.382242 0.332827 5.315492 -13.288637 -7.392128 7.838303 -79.306790 -77.248109 -103.532542 -19.873880 -8.478996 -36.298927 -58.308900 -18.619758 2.314556 19.288413 -16.311197 -54.236953 -10.708125 80.050459 171.391739 -23.730014 9.864731 30.276103 -59.930729 16.947033 -2.228630 12.289278 7.918521 44.454985 
24.506838 0.000000 364.081640 0.000000 207.653973 0.000000 0.500071 89.477637 -1.888250 92.157531 -4.521530 177.731183 149.175223 5.781412 179.171112 -49.054993 1.454540 -4.262800 71.783987 1.736293 -4.238910 21.454556 0.003105 0.000017 -171.678548 -3.983399 178.771393 -30.970770 0.952380 3.529588 74.492329 -3.085376 -1.803508 21.454546 -0.003090 0.000001 6.821187 -0.637884 2.029337 3.606242 -1.337772 4.038349 3.288902 -1.313519 4.046331 -15.717406 -0.410631 4.691852 -11.626233 -6.636545 6.607604 -85.910083 -77.890276 -96.869330 -19.020963 -8.348167 -36.867450 -67.234159 -16.893407 2.535038 15.518767 -16.523318 -49.260843 -13.853763 81.661396 168.248631 -23.372751 8.890360 31.569202 -66.966004 15.206229 -2.357821 11.066782 8.944934 42.430511 
21.931751 0.000000 364.829488 0.000000 206.688614 0.000000 0.531165 89.626472 -1.988493 91.775449 -4.765994 178.240558 150.192594 6.238008 -179.418319 -42.945128 1.149850 -2.028196 73.179827 0.118800 -4.401177 21.454557 0.003109 0.000016 -171.789079 -3.721803 179.093898 -33.256750 0.397409 2.525708 72.585410 -1.732365 0.344675 21.454545 -0.003090 0.000000 6.694710 -0.707611 2.054334 3.350599 -1.473432 4.087959 3.033262 -1.448875 4.096759 -16.514530 -1.007449 4.030532 -10.478937 -5.826695 5.427727 -91.429343 -78.342721 -91.293785 -18.286180 -8.139343 -38.352047 -75.508328 -13.599581 2.661959 10.772656 -15.684274 -42.336728 -17.619320 83.374709 164.470228 -22.712314 7.768428 33.771504 -74.265786 12.335639 -2.483874 9.267364 10.075503 39.446988 
19.386455 0.000000 365.556824 0.000000 205.704043 0.000000 0.622223 89.488927 -2.067081 91.739137 -4.972056 178.797690 151.458320 6.740323 -177.037206 -38.251422 0.764426 -0.298329 75.232476 -1.071977 -4.486340 21.454558 0.003110 0.000016 -172.146888 -3.619297 178.500727 -36.892766 0.062032 1.942600 71.743784 -0.425545 3.090328 21.454550 -0.003092 -0.000000 6.635838 -0.760879 2.032790 3.231334 -1.577238 4.044255 2.913957 -1.552942 4.053683 -16.219092 -1.525623 3.370900 -10.503376 -4.948955 4.350974 -94.886908 -78.678804 -87.787574 -17.753796 -7.741404 -40.845815 -82.957002 -8.817139 2.695362 6.210829 -13.896278 -35.200622 -17.191269 85.178928 164.828822 -21.453869 6.486698 36.999541 -81.353488 8.152709 -2.542144 6.963641 11.164679 36.067603 
16.874780 0.000000 366.262416 0.000000 204.700782 0.000000 0.783681 89.080887 -2.144392 92.049706 -5.140403 179.343607 153.028748 7.236100 -173.950629 -34.810519 0.145204 0.469472 76.074550 -1.476737 -4.162528 21.454560 0.003109 0.000016 -172.664874 -3.556200 177.281931 -41.488470 0.089568 1.431732 70.964859 0.844149 5.719607 21.454557 -0.003093 0.000000 6.657942 -0.790578 1.971336 3.275425 -1.635686 3.920252 2.957982 -1.612136 3.930036 -15.310670 -2.072161 2.739254 -11.103388 -4.145918 3.353878 -96.312765 -78.969815 -86.325088 -17.473697 -7.211928 -42.807588 -89.798579 -4.020916 2.618997 2.667870 -12.314759 -30.137956 -12.326474 86.574555 169.613525 -20.241511 4.955576 39.898194 -88.081804 3.912464 -2.493958 4.807056 12.351284 33.744634 
14.396212 0.000000 366.946158 0.000000 203.677966 0.000000 1.009245 88.443298 -2.236993 92.660211 -5.287307 179.810827 154.879795 7.646013 -170.718266 -32.536331 -0.804835 0.053183 74.481208 -0.920992 -3.183691 21.454558 0.003108 0.000017 -173.302358 -3.406185 175.863418 -46.630215 0.460283 0.597419 69.403306 2.132942 7.417410 21.454557 -0.003092 0.000000 6.761991 -0.796347 1.882313 3.484619 -1.648138 3.740521 3.167105 -1.625671 3.750381 -14.334292 -2.710396 2.157549 -11.579570 -3.550345 2.437846 -96.224186 -79.255773 -86.389431 -17.428208 -6.715668 -42.764952 -96.298320 -0.628014 2.646017 0.455893 -12.186219 -28.723414 -8.991522 87.166291 172.907447 -19.703691 3.243878 41.149352 -94.419870 0.891306 -2.542943 3.432947 13.788547 33.625338 
11.949507 0.000000 367.610427 0.000000 202.631324 0.000000 1.255833 87.632080 -2.346301 93.472203 -5.599469 -179.893106 156.565681 7.930295 -169.009001 -32.441024 -1.586467 -0.644797 73.658467 -0.124263 -2.186544 21.454557 0.003108 0.000018 -174.102915 -3.026703 174.625821 -52.191097 0.782659 -0.504267 68.077136 3.154039 7.748934 21.454557 -0.003091 -0.000000 6.911702 -0.825056 1.768028 3.784858 -1.706713 3.508845 3.467251 -1.685642 3.519063 -13.069727 -3.231866 1.612966 -12.075556 -3.208598 1.686843 -95.838599 -79.626893 -86.747167 -17.498800 -6.610770 -41.126327 -102.443807 1.535674 2.796897 -0.644552 -13.090911 -29.917792 -7.536365 87.426308 174.338663 -19.714627 1.654323 40.909151 -100.393500 -0.932145 -2.702466 2.668029 14.837987 34.677429 
